<?xml version="1.0" encoding="UTF-8" standalone="no"?>
<!-- Created with Inkscape (http://www.inkscape.org/) -->

<svg
   width="1715.1797"
   height="569.2431"
   viewBox="0 0 453.80795 150.61224"
   version="1.1"
   id="svg1"
   xmlns:xlink="http://www.w3.org/1999/xlink"
   xmlns="http://www.w3.org/2000/svg"
   xmlns:svg="http://www.w3.org/2000/svg">
  <defs
     id="defs1">
    <linearGradient
       id="swatch14">
      <stop
         style="stop-color:#2a2a2a;stop-opacity:1;"
         offset="0"
         id="stop14" />
    </linearGradient>
    <linearGradient
       id="swatch11">
      <stop
         style="stop-color:#ffffff;stop-opacity:1;"
         offset="0"
         id="stop11" />
    </linearGradient>
    <linearGradient
       id="swatch1">
      <stop
         style="stop-color:#e8d000;stop-opacity:1;"
         offset="0"
         id="stop1" />
    </linearGradient>
    <linearGradient
       id="swatch18">
      <stop
         style="stop-color:#000000;stop-opacity:1;"
         offset="0"
         id="stop18" />
    </linearGradient>
    <linearGradient
       id="swatch16">
      <stop
         style="stop-color:#000000;stop-opacity:1;"
         offset="0"
         id="stop16" />
    </linearGradient>
    <linearGradient
       id="swatch4">
      <stop
         style="stop-color:#ffffff;stop-opacity:1;"
         offset="0"
         id="stop4" />
    </linearGradient>
    <linearGradient
       id="swatch2">
      <stop
         style="stop-color:#1a1a1b;stop-opacity:1;"
         offset="0"
         id="stop2" />
    </linearGradient>
    <linearGradient
       xlink:href="#swatch4"
       id="linearGradient15"
       gradientUnits="userSpaceOnUse"
       gradientTransform="matrix(0.95172663,0,0,0.71989898,-51.373058,159.97255)"
       x1="-4.4689865"
       y1="106.13842"
       x2="479.07532"
       y2="106.13842" />
    <filter
       style="color-interpolation-filters:sRGB"
       id="filter66"
       x="-0.22653664"
       y="-0.15016078"
       width="1.4155873"
       height="1.32659">
      <feFlood
         result="flood"
         in="SourceGraphic"
         flood-opacity="0.44440959549878345"
         flood-color="rgb(0,0,0)"
         id="feFlood65" />
      <feGaussianBlur
         result="blur"
         in="SourceGraphic"
         stdDeviation="5.0119874338624335"
         id="feGaussianBlur65" />
      <feOffset
         result="offset"
         in="blur"
         dx="-3.000000"
         dy="3.000000"
         id="feOffset65" />
      <feComposite
         result="comp1"
         operator="in"
         in="flood"
         in2="offset"
         id="feComposite65" />
      <feComposite
         result="comp2"
         operator="over"
         in="SourceGraphic"
         in2="comp1"
         id="feComposite66" />
    </filter>
    <filter
       style="color-interpolation-filters:sRGB"
       id="filter68"
       x="-0.28739259"
       y="-0.17654896"
       width="1.5307521"
       height="1.3798965">
      <feFlood
         result="flood"
         in="SourceGraphic"
         flood-opacity="0.572549"
         flood-color="rgb(0,0,0)"
         id="feFlood66" />
      <feGaussianBlur
         result="blur"
         in="SourceGraphic"
         stdDeviation="6.000000"
         id="feGaussianBlur66" />
      <feOffset
         result="offset"
         in="blur"
         dx="-3.000000"
         dy="3.000000"
         id="feOffset66" />
      <feComposite
         result="comp1"
         operator="in"
         in="flood"
         in2="offset"
         id="feComposite67" />
      <feComposite
         result="comp2"
         operator="over"
         in="SourceGraphic"
         in2="comp1"
         id="feComposite68" />
    </filter>
    <filter
       style="color-interpolation-filters:sRGB"
       id="filter75"
       x="-0.099707453"
       y="-0.15178453"
       width="1.1640989"
       height="1.3562443">
      <feFlood
         result="flood"
         in="SourceGraphic"
         flood-opacity="0.15725745133819952"
         flood-color="rgb(0,0,0)"
         id="feFlood74" />
      <feGaussianBlur
         result="blur"
         in="SourceGraphic"
         stdDeviation="7.9571759259259256"
         id="feGaussianBlur74" />
      <feOffset
         result="offset"
         in="blur"
         dx="-10.474006"
         dy="6.627485"
         id="feOffset74" />
      <feComposite
         result="comp1"
         operator="in"
         in="flood"
         in2="offset"
         id="feComposite74" />
      <feComposite
         result="comp2"
         operator="over"
         in="SourceGraphic"
         in2="comp1"
         id="feComposite75" />
    </filter>
    <linearGradient
       xlink:href="#swatch1"
       id="linearGradient1"
       x1="271.55286"
       y1="241.02277"
       x2="399.79083"
       y2="241.02277"
       gradientUnits="userSpaceOnUse" />
    <linearGradient
       xlink:href="#swatch1"
       id="linearGradient9"
       x1="271.65567"
       y1="233.51173"
       x2="387.48904"
       y2="233.51173"
       gradientUnits="userSpaceOnUse" />
    <linearGradient
       xlink:href="#swatch1"
       id="linearGradient10"
       x1="285.95679"
       y1="228.80197"
       x2="361.72607"
       y2="228.80197"
       gradientUnits="userSpaceOnUse" />
    <linearGradient
       xlink:href="#swatch14"
       id="linearGradient11"
       x1="271.55286"
       y1="241.02277"
       x2="399.79083"
       y2="241.02277"
       gradientUnits="userSpaceOnUse" />
    <linearGradient
       xlink:href="#swatch14"
       id="linearGradient12"
       x1="271.65567"
       y1="233.51173"
       x2="387.48904"
       y2="233.51173"
       gradientUnits="userSpaceOnUse" />
    <linearGradient
       xlink:href="#swatch14"
       id="linearGradient13"
       x1="285.95679"
       y1="228.80197"
       x2="361.72607"
       y2="228.80197"
       gradientUnits="userSpaceOnUse" />
    <linearGradient
       xlink:href="#swatch14"
       id="linearGradient18"
       gradientUnits="userSpaceOnUse"
       x1="-87.479973"
       y1="238.55823"
       x2="303.95465"
       y2="238.55823" />
  </defs>
  <g
     id="g6"
     transform="translate(51.388998,-159.63251)"
     style="display:inline">
    <rect
       style="display:none;fill:url(#linearGradient15);stroke-width:8.27736;stroke-miterlimit:5"
       id="rect3"
       width="460.202"
       height="157.96542"
       x="-55.626312"
       y="157.39877" />
    <path
       d="m 60.998618,290.99203 q -9.383872,4.69194 -17.533024,5.92666 -8.149152,1.23472 -14.81664,1.23472 -6.79096,0 -12.100256,-1.72861 -5.309296,-1.72861 -9.7542879,-4.44499 -4.32152,-2.59291 -8.02568,-5.67971 -3.70416,-3.0868 -7.284848,-5.80319 -3.5806881,-2.59291 -7.2848481,-4.32152 -3.580688,-1.7286 -7.902208,-1.7286 -3.951104,0 -8.02568,0.74083 4.93888,-5.92666 7.284848,-13.95234 2.345968,-8.14915 2.345968,-17.03913 0,-2.59292 -0.246944,-5.3093 -0.246944,-2.83986 -0.987776,-5.43277 -0.61736,-2.71638 -1.975552,-5.06235 -1.23472,-2.46944 -3.333744,-4.32152 3.457216,-6.42054 4.691936,-11.72984 1.358192,-5.3093 1.358192,-10.98901 0,-5.80318 -0.740832,-8.88998 -0.61736,-3.21027 -2.099024,-5.06235 -1.481664,-1.85208 -3.827632,-3.0868 -2.222496,-1.3582 -5.55624,-3.58069 2.345968,0.24694 4.444992,0.37041 2.222496,0.12348 4.32152,0.12348 4.93888,0 9.136928,-0.49389 4.198048,-0.49389 7.9022081,-1.11125 3.70416,-0.61736 7.161376,-1.11125 3.457216,-0.49389 7.037904,-0.49389 2.46944,0 5.3092959,0.37042 -3.0867999,0 -5.9266559,2.34597 -2.716384,2.34597 -4.93888001,6.05013 -2.09902399,3.58068 -3.45721599,8.02568 -1.23472,4.32152 -1.23472,8.51956 v 31.23842 q 0,4.07458 0.246944,7.77874 0.370416,3.58068 0.864304,6.54401 0.61736,2.83986 1.358192,4.93888 0.740832,2.09903 1.60513599,2.96333 -2.09902399,0.8643 -4.93887999,2.34597 -2.716384,1.35819 -4.1980481,4.19805 0.7408321,2.46944 4.3215201,6.1736 3.70416,3.58068 8.519568,7.16137 4.815408,3.70416 9.8777599,6.66749 5.185824,2.96333 8.766512,4.07458 -1.605136,-2.09903 -3.210272,-4.93888 -1.481664,-2.71639 -2.46944,-4.81541 5.679712,3.45721 10.49512,5.80318 4.815408,2.34597 9.013456,3.82763 4.32152,1.48167 8.272624,2.09903 3.951104,0.61736 8.02568,0.61736 2.099024,0 4.32152,-0.24695 2.222496,-0.12347 4.691936,-0.37041 z M 16.30183,214.93328 q 2.592912,-0.24694 5.803184,-0.74083 3.210272,-0.61736 6.420544,-1.35819 3.210272,-0.74083 5.926656,-1.48167 2.716384,-0.8643 4.32152,-1.60513 -0.246944,2.09902 -0.493888,3.82763 -0.123472,1.72861 -0.246944,3.70416 0,1.97555 -0.123472,4.32152 0,2.34597 0,5.55624 v 24.94134 l 5.185824,3.95111 11.853312,-5.18583 V 231.602 q 0,-4.19805 -0.246944,-6.91443 -0.123472,-2.71638 -0.740832,-4.32152 -0.61736,-1.60514 -1.728608,-2.34597 -0.987776,-0.8643 -2.839856,-1.35819 v -1.60514 q 5.926656,-0.37041 11.606368,-1.7286 5.803184,-1.3582 10.001232,-3.45722 v 29.13939 q 0,5.80319 0.246944,9.50735 0.246944,3.58068 0.864304,5.80318 0.61736,2.2225 1.605136,3.21027 1.111248,0.98778 2.839856,1.35819 v 1.3582 q -1.605136,0.74083 -3.580688,2.22249 -1.975552,1.48167 -3.827632,3.33375 -1.85208,1.85208 -3.333744,3.82763 -1.481664,1.85208 -2.222496,3.45721 -4.074576,-3.45721 -5.926656,-6.42054 -1.728608,-2.96333 -2.345968,-7.28485 -3.70416,1.85208 -6.544016,3.45722 -2.716384,1.60513 -5.062352,3.21027 -2.222496,1.60514 -4.198048,3.33374 -1.85208,1.72861 -3.827632,3.70416 -2.46944,-2.22249 -4.444992,-3.70416 -1.85208,-1.60513 -3.70416,-2.83985 -1.728608,-1.23472 -3.580688,-2.2225 -1.728608,-1.11125 -3.951104,-2.34597 0.493888,-0.74083 0.864304,-3.33374 0.493888,-2.59291 0.864304,-6.29707 0.370416,-3.70416 0.493888,-7.90221 0.246944,-4.32152 0.246944,-8.27262 0,-4.445 -0.370416,-7.65527 -0.246944,-3.33374 -0.987776,-5.67971 -0.740832,-2.34597 -1.975552,-3.82763 -1.111248,-1.60514 -2.963328,-2.71639 z m 120.87918,21.97802 q 0,6.91443 0.24694,10.98901 0.24695,4.07457 0.86431,6.42054 0.74083,2.2225 1.7286,3.21027 1.11125,0.86431 2.71639,1.35819 v 1.3582 q -1.72861,0.61736 -3.70416,2.22249 -1.85208,1.48167 -3.70416,3.33375 -1.85208,1.85208 -3.33375,3.82763 -1.48166,1.97555 -2.22249,3.45721 -2.59291,-1.7286 -4.69194,-4.56846 -2.09902,-2.83986 -3.33374,-5.67971 -2.2225,1.48166 -5.06235,2.96333 -2.83986,1.48166 -6.05013,2.83985 -3.0868,1.23472 -6.42055,2.2225 -3.33374,1.11125 -6.420539,1.85208 -2.963328,-3.21027 -6.420544,-5.3093 -3.457216,-2.09902 -7.037904,-3.0868 1.358192,-5.18582 1.605136,-9.75429 0.246944,-4.69193 0.246944,-9.38387 0,-5.92665 -0.123472,-10.1247 -0.123472,-4.32152 -0.493888,-7.28485 -0.246944,-3.0868 -0.61736,-4.93888 -0.370416,-1.97555 -0.864304,-3.21027 5.55624,-0.98778 11.235952,-3.70416 5.803179,-2.83986 11.482899,-6.79096 3.82763,1.60513 7.16137,2.46944 3.33375,0.8643 7.16138,1.23472 v -17.90344 q 0,-3.0868 -0.12347,-5.55624 -0.12348,-2.46944 -0.61736,-4.56847 -0.37042,-2.09902 -1.11125,-4.07457 -0.74083,-1.97555 -1.85208,-4.07458 2.46944,0.86431 5.80318,0.86431 4.07458,0 8.51957,-1.3582 4.56846,-1.35819 9.75429,-3.82763 -2.46944,2.96333 -3.45722,7.90221 -0.8643,4.93888 -0.8643,11.35942 z m -26.29954,-15.55747 q -1.48166,1.35819 -4.07457,3.0868 -2.46944,1.60513 -4.445,2.46944 0.24695,2.71638 0.24695,7.40832 0.12347,4.56846 0.12347,8.76651 0,3.9511 -0.24694,7.90221 -0.12348,3.9511 -0.37042,7.28484 2.46944,-0.12347 5.18582,-0.61736 2.83986,-0.61736 5.43277,-1.35819 2.59291,-0.74083 4.81541,-1.60513 2.2225,-0.98778 3.58069,-1.85208 v -29.01592 q -1.97555,-0.12348 -4.93888,-0.86431 -2.96333,-0.74083 -5.3093,-1.60513 z m 60.99522,-11.4829 q 8.51957,2.83986 14.19928,3.82763 5.67971,0.98778 10.49512,0.98778 2.71638,0 4.07458,0 1.48166,-0.12347 2.83985,-0.37042 -1.48166,8.02568 -1.48166,18.89122 0,13.33497 2.22249,25.92912 -3.0868,0.37041 -6.54401,1.60513 -3.45722,1.23472 -6.91443,3.0868 -3.45722,1.85208 -6.66749,4.32152 -3.21027,2.34597 -5.80319,4.93888 -1.35819,-1.11124 -4.69193,-2.34596 -3.33375,-1.11125 -7.28485,-2.09903 -3.9511,-0.98777 -7.90221,-1.60513 -3.9511,-0.61736 -6.54401,-0.61736 -0.74084,0 -1.48167,0.12347 -0.61736,0 -1.23472,0.12347 1.72861,-1.48166 2.46944,-5.80318 0.86431,-4.445 0.86431,-11.4829 0,-3.58069 -0.24695,-7.77874 -0.24694,-4.32152 -0.74083,-8.14915 -0.37042,-3.82763 -0.8643,-6.54401 -0.49389,-2.71639 -0.98778,-3.33375 4.81541,-0.8643 10.74206,-4.44499 5.92666,-3.70416 11.4829,-9.2604 z m 14.81664,15.68094 q -5.67971,-0.49388 -11.11248,-1.60513 -5.43277,-1.23472 -8.27262,-2.71639 0.61736,5.18583 0.8643,9.75429 0.24694,4.44499 0.24694,9.01346 0,3.58069 -0.24694,8.14915 -0.12347,4.44499 -0.37042,8.76651 4.19805,0.49389 9.2604,1.35819 5.06236,0.86431 9.38388,2.2225 z m 45.31418,-5.67971 q -0.24695,1.97555 -0.37042,3.82763 0,1.85208 0,4.32152 0,2.46944 0.12347,4.93888 0.12348,2.46944 0.37042,4.445 2.34597,-0.86431 4.81541,-1.48167 2.59291,-0.61736 5.67971,-1.11125 3.21027,-0.49388 7.16138,-0.8643 3.9511,-0.37042 9.2604,-0.74083 -0.37042,4.32152 -0.37042,12.59414 0,7.03791 0.24694,12.59415 0.24695,5.43276 0.86431,8.27262 -3.82763,0 -7.77874,0.49389 -3.9511,0.49389 -7.53179,1.35819 -3.58069,0.8643 -6.66749,2.09902 -3.0868,1.23472 -5.18582,2.71639 -1.48167,-1.35819 -3.33375,-2.34597 -1.7286,-0.98778 -4.19804,-1.60514 -2.46944,-0.74083 -5.80319,-1.11124 -3.33374,-0.49389 -7.90221,-0.74084 0.24695,-3.82763 1.48167,-7.77873 1.35819,-4.07458 3.33374,-6.54402 2.83986,0 8.88999,2.09903 6.05012,2.09902 16.05136,6.54401 0.74083,-3.9511 1.11124,-7.16137 0.37042,-3.33375 0.37042,-6.91444 0,-2.22249 0,-3.21027 0,-0.98777 -0.12347,-1.85208 -5.43277,0.49389 -12.59415,1.85208 -7.16137,1.23472 -13.45844,2.96333 0.49388,-5.3093 0.61736,-8.14915 0.12347,-2.96333 0.12347,-5.3093 0,-5.55624 -0.61736,-9.75429 -0.49389,-4.19804 -1.72861,-7.77873 4.69194,0 10.1247,-1.60514 5.43277,-1.60513 13.58192,-5.06235 7.77874,3.9511 23.21274,5.06235 -2.2225,5.3093 -5.06235,7.77874 -2.83986,2.34597 -7.03791,2.34597 -1.85208,0 -4.19804,-0.37042 -2.34597,-0.37042 -4.81541,-1.11125 -2.34597,-0.74083 -4.69194,-1.60513 -2.22249,-0.98778 -3.9511,-2.09903 z"
       id="text16"
       style="fill:url(#linearGradient18);stroke-width:7;stroke-miterlimit:5;filter:url(#filter75)"
       aria-label="Ludos" />
    <path
       style="fill:url(#linearGradient10);fill-opacity:1;stroke:url(#linearGradient13);stroke-width:7.42976;stroke-miterlimit:5;stroke-dasharray:none;stroke-opacity:1"
       d="m 290.88267,281.46931 c 0,0 6.00191,-58.29696 -0.97783,-92.95497 l 8.86589,-13.16994 c 18.7731,6.2577 59.22545,-0.0866 59.22545,-0.0866 l -0.31216,90.51996 -10.62215,16.69558 c -20.33909,-4.76325 -30.69872,-2.3104 -56.1792,-1.00404 z"
       id="path18" />
    <path
       style="fill:url(#linearGradient9);fill-opacity:1;stroke:url(#linearGradient12);stroke-width:7;stroke-miterlimit:5;stroke-dasharray:none;stroke-opacity:1;filter:url(#filter68)"
       d="m 293.40292,277.28122 c 0,0 12.72763,-53.72822 10.44039,-86.95845 l 9.89119,-11.22053 c 16.77359,8.139 55.33931,7.15312 55.33931,7.15312 l -11.34809,84.52612 -11.96252,14.29966 c -18.41909,-6.93416 -28.39672,-5.90805 -52.36028,-7.79993 z"
       id="path18-6"
       transform="matrix(1.0613948,0,0,1.0613948,-18.49183,-15.150383)" />
    <path
       style="fill:url(#linearGradient1);fill-opacity:1;stroke:url(#linearGradient11);stroke-width:7;stroke-miterlimit:5;stroke-dasharray:none;stroke-opacity:1;filter:url(#filter66)"
       d="m 293.6871,279.47013 c 0,0 19.8471,-51.52482 22.05572,-84.76036 l 11.31212,-9.7863 c 15.52475,10.3237 53.87193,14.54034 53.87193,14.54034 l -22.62759,82.22795 -13.77926,12.55844 c -17.31749,-9.35144 -27.34243,-9.67834 -50.83292,-14.78008 z"
       id="path18-6-9"
       transform="matrix(1.0613948,0,0,1.0613948,-18.49183,-15.150383)" />
  </g>
</svg>
